<svg xmlns="http://www.w3.org/2000/svg" style="display: none;"><symbol id="cogwheel" viewBox="0 0 468.293 468.293"><title>cogwheel</title><path style="fill:#D5D6DB;" d="M386.356,312.984l3.675-55.425l-16.942-4.695c-9.025-2.501-16.214-9.315-19.203-18.19 c-0.033-0.098-0.066-0.196-0.1-0.295c-3.014-8.875-1.457-18.653,4.196-26.129l10.605-14.023l-36.593-41.791l-15.315,8.669 c-8.17,4.625-18.087,4.869-26.494,0.691c-0.088-0.044-0.175-0.087-0.263-0.13c-8.383-4.141-14.171-12.156-15.457-21.418 l-2.419-17.429l-55.425-3.675l-4.695,16.942c-2.501,9.025-9.315,16.214-18.19,19.203c-0.099,0.033-0.197,0.067-0.296,0.1 c-8.875,3.014-18.654,1.458-26.13-4.196L153.29,140.59l-41.79,36.592l8.669,15.316c4.624,8.17,4.868,18.086,0.691,26.493 c-0.043,0.087-0.087,0.174-0.13,0.262c-4.141,8.383-12.156,14.171-21.417,15.457l-17.431,2.42l-3.675,55.425l16.942,4.695 c9.025,2.501,16.214,9.315,19.203,18.191c0.033,0.098,0.066,0.197,0.1,0.295c3.014,8.875,1.457,18.653-4.196,26.129l-10.604,14.022 l36.593,41.791l15.315-8.669c8.17-4.624,18.086-4.869,26.493-0.691c0.087,0.043,0.174,0.087,0.262,0.13 c8.383,4.141,14.172,12.156,15.458,21.418l2.419,17.429l55.425,3.674l4.694-16.941c2.501-9.025,9.315-16.214,18.19-19.203 c0.099-0.033,0.197-0.067,0.296-0.1c8.875-3.014,18.654-1.458,26.13,4.196l14.022,10.604l41.79-36.593l-8.669-15.314 c-4.625-8.17-4.868-18.086-0.691-26.494c0.043-0.087,0.087-0.174,0.13-0.262c4.141-8.383,12.156-14.171,21.417-15.457 L386.356,312.984z"/><circle style="fill:#EBF0F3;" cx="234.121" cy="275.056" r="99.003"/><g> <path style="fill:#E1E6E9;" d="M209.108,53.81c3.684-0.5,7.368-0.812,11.114-0.999v16.734c-3.746,0.188-7.43,0.562-11.114,1.061 c-90.662,11.239-162.529,83.232-173.83,173.831c-0.5,3.621-0.874,7.367-1.061,11.114H17.421c0.25-3.747,0.562-7.493,0.999-11.114 C29.971,144.596,109.331,65.236,209.108,53.81z"/> <path style="fill:#E1E6E9;" d="M450.872,255.551h-16.796c-0.187-3.747-0.562-7.493-1.061-11.114 c-11.301-90.599-83.231-162.591-173.83-173.831c-3.684-0.499-7.368-0.873-11.114-1.061V52.811c3.746,0.188,7.43,0.499,11.114,0.999 c99.778,11.426,179.138,90.849,190.689,190.627C450.31,248.058,450.622,251.804,450.872,255.551z"/> </g><circle style="fill:#64798A;" cx="234.121" cy="275.056" r="39.849"/><g> <path style="fill:#D5D6DB;" d="M418.178,244.411v50.115h50.115v-50.115H418.178z M457.156,283.389h-27.841v-27.841h27.841V283.389z "/> <path style="fill:#D5D6DB;" d="M209.108,37.326v50.139h50.076V37.326H209.108z M248.07,76.288h-27.848V48.44h27.848V76.288z"/> <path style="fill:#D5D6DB;" d="M0,244.411v50.115h50.115v-50.115H0z M38.978,283.389H11.137v-27.841h27.841V283.389z"/> </g></symbol><symbol id="computer" viewBox="0 0 468.293 468.293"><title>computer</title><path style="fill:#1C75A1;" d="M0,326.232V33.104c0-6.897,5.591-12.488,12.488-12.488h443.317c6.897,0,12.488,5.591,12.488,12.488 v293.128H0z"/><path style="fill:#64798A;" d="M0,375.847v-49.616h468.293v49.616c0,6.897-5.591,12.488-12.488,12.488H12.488 C5.591,388.335,0,382.744,0,375.847z"/><rect x="15.61" y="36.227" style="fill:#E1E6E9;" width="437.073" height="274.395"/><circle style="fill:#2F4859;" cx="234.146" cy="357.282" r="23.415"/><path style="fill:#3A556A;" d="M319.085,447.677v-10.929c0-3.644-2.512-6.808-6.062-7.633l-0.014-0.003 c-13.758-3.198-23.496-15.459-23.496-29.584v-11.193H178.779v11.193c0,14.125-9.738,26.385-23.496,29.584l-0.758,0.176 c-3.114,0.724-5.318,3.499-5.318,6.695v11.694"/><rect x="78.049" y="152.37" style="fill:#E56353;" width="141.699" height="129.886"/><rect x="248.57" y="152.37" style="fill:#44C4A1;" width="141.699" height="129.886"/><path style="fill:#3A556A;" d="M341.996,108.632c-1.833-2.698-5.506-3.402-8.199-1.568l-8.493,5.762V70.492 c0-3.263-2.641-5.904-5.904-5.904H148.899c-3.263,0-5.904,2.641-5.904,5.904v42.333l-8.493-5.762 c-2.693-1.833-6.365-1.13-8.199,1.568s-1.13,6.371,1.568,8.199l17.712,12.021c0.206,0.139,0.438,0.203,0.656,0.314 c0.205,0.106,0.396,0.213,0.615,0.294c0.662,0.247,1.346,0.413,2.045,0.413c0.698,0,1.382-0.165,2.045-0.412 c0.218-0.081,0.41-0.19,0.616-0.295c0.216-0.111,0.449-0.174,0.654-0.313l17.712-12.021c2.698-1.828,3.402-5.5,1.568-8.199 c-1.833-2.698-5.5-3.402-8.199-1.568l-8.493,5.762V76.396h158.693v36.429l-8.493-5.762c-2.687-1.833-6.365-1.13-8.199,1.568 c-1.833,2.698-1.13,6.371,1.568,8.199l17.712,12.021c0.206,0.139,0.438,0.203,0.656,0.314c0.205,0.106,0.396,0.213,0.615,0.294 c0.662,0.247,1.346,0.413,2.045,0.413c0.698,0,1.382-0.165,2.045-0.412c0.218-0.081,0.41-0.19,0.616-0.295 c0.216-0.111,0.449-0.174,0.654-0.313l17.712-12.021C343.126,115.003,343.829,111.33,341.996,108.632z"/></symbol><symbol id="computer-1" viewBox="0 0 468.293 468.293"><title>computer-1</title><path style="fill:#3A556A;" d="M9.824,390.253V97.679c0-6.897,5.591-12.488,12.488-12.488h423.668 c6.897,0,12.488,5.591,12.488,12.488v292.574c0,6.897-5.591,12.488-12.488,12.488H22.312C15.415,402.741,9.824,397.15,9.824,390.253 z"/><rect x="25.069" y="101.694" style="fill:#27A2DB;" width="418.154" height="241.321"/><circle style="fill:#D5D6DB;" cx="234.146" cy="373.51" r="19.444"/><g> <path style="fill:#64798A;" d="M278.146,402.741h-43.999h-43.999c0,27.89-17.449,45.257-42.002,54.722v10.83h86.001h86.001v-10.83 C295.594,447.998,278.146,430.631,278.146,402.741z"/> <path style="fill:#64798A;" d="M298.828,203.385H178.037c-3.448,0-6.244-2.795-6.244-6.244v-33.537h133.279v33.537 C305.071,200.59,302.276,203.385,298.828,203.385z"/> <path style="fill:#64798A;" d="M305.071,36.253H171.793V6.244c0-3.448,2.796-6.244,6.244-6.244h120.791 c3.448,0,6.244,2.795,6.244,6.244V36.253z"/> </g><rect x="171.77" y="36.252" style="fill:#EBF0F3;" width="133.276" height="127.351"/><g> <path style="fill:#3A556A;" d="M255.649,21.516h-34.433c-1.724,0-3.122-1.398-3.122-3.122v-0.536c0-1.724,1.398-3.122,3.122-3.122 h34.433c1.724,0,3.122,1.398,3.122,3.122v0.536C258.771,20.118,257.373,21.516,255.649,21.516z"/> <circle style="fill:#3A556A;" cx="238.43" cy="183.496" r="12.488"/> </g></symbol><symbol id="internet" viewBox="0 0 468.293 468.293"><title>internet</title><path style="fill:#3A556A;" d="M375.696,119.804H0V61.509c0-6.897,5.591-12.488,12.488-12.488h350.72 c6.897,0,12.488,5.591,12.488,12.488V119.804z"/><path style="fill:#E1E6E9;" d="M363.208,419.272H12.488C5.591,419.272,0,413.681,0,406.784v-286.98h375.696v286.98 C375.696,413.681,370.105,419.272,363.208,419.272z"/><rect x="31.257" y="70.8" style="fill:#FCD462;" width="27.223" height="27.223"/><rect x="74.814" y="70.8" style="fill:#44C4A1;" width="27.223" height="27.223"/><rect x="118.372" y="70.8" style="fill:#E1E6E9;" width="27.223" height="27.223"/><path style="fill:#27A2DB;" d="M85.13,169.93c-1.306-2.521-4.41-3.516-6.93-2.21c-12.555,6.483-22.994,16.062-30.479,27.909 l-7.686-7.685c-2.009-2.009-5.264-2.009-7.273,0s-2.009,5.264,0,7.273l12.436,12.436c0.971,0.971,2.282,1.507,3.636,1.507 c0.253,0,0.509-0.02,0.763-0.057c1.614-0.241,3.017-1.236,3.782-2.679l0.385-0.727c6.585-12.419,16.665-22.391,29.153-28.837 C85.443,175.559,86.433,172.455,85.13,169.93z"/><path style="fill:#44C4A1;" d="M85.13,225.352c-1.306-2.521-4.41-3.516-6.93-2.21c-12.555,6.483-22.994,16.062-30.479,27.909 l-7.686-7.685c-2.009-2.009-5.264-2.009-7.273,0c-2.009,2.009-2.009,5.264,0,7.273l12.436,12.436 c0.971,0.971,2.282,1.507,3.636,1.507c0.253,0,0.509-0.02,0.763-0.057c1.614-0.241,3.017-1.236,3.782-2.679l0.385-0.727 c6.585-12.419,16.665-22.391,29.153-28.837C85.443,230.98,86.433,227.876,85.13,225.352z"/><path style="fill:#E56353;" d="M85.13,280.773c-1.306-2.521-4.41-3.516-6.93-2.21c-12.555,6.483-22.994,16.062-30.479,27.909 l-7.686-7.685c-2.009-2.009-5.264-2.009-7.273,0s-2.009,5.264,0,7.273l12.436,12.436c0.971,0.971,2.282,1.507,3.636,1.507 c0.253,0,0.509-0.02,0.763-0.057c1.614-0.241,3.017-1.236,3.782-2.679l0.385-0.727c6.585-12.419,16.665-22.391,29.153-28.837 C85.443,286.402,86.433,283.298,85.13,280.773z"/><g> <path style="fill:#27A2DB;" d="M85.13,336.195c-1.306-2.521-4.41-3.516-6.93-2.21c-12.555,6.483-22.994,16.062-30.479,27.909 l-7.686-7.685c-2.009-2.009-5.264-2.009-7.273,0s-2.009,5.264,0,7.273l12.436,12.436c0.971,0.971,2.282,1.507,3.636,1.507 c0.253,0,0.509-0.02,0.763-0.057c1.614-0.241,3.017-1.236,3.782-2.679l0.385-0.727c6.585-12.419,16.665-22.391,29.153-28.837 C85.443,341.823,86.433,338.719,85.13,336.195z"/> <rect x="112.927" y="163.653" style="fill:#27A2DB;" width="234.128" height="16.334"/> </g><rect x="112.927" y="219.074" style="fill:#44C4A1;" width="234.128" height="16.334"/><rect x="112.927" y="274.482" style="fill:#E56353;" width="234.128" height="16.334"/><rect x="112.927" y="329.928" style="fill:#27A2DB;" width="234.128" height="16.334"/><path style="fill:#E1E6E9;" d="M468.275,349.916v10.739l-17.858,33.53l-10.606,19.924c-1.175,2.207-4.337,2.207-5.512,0 l-10.606-19.924l-17.857-33.53v-10.739H468.275z"/><polygon style="fill:#FCD462;" points="468.275,92.916 468.275,360.655 460.969,353.288 457.909,350.228 454.725,353.412 447.482,360.655 437.055,350.228 433.933,353.35 426.627,360.655 419.447,353.412 416.263,350.228 405.835,360.655 405.835,92.916 "/><path style="fill:#27A2DB;" d="M468.293,92.925H405.83V61.509c0-6.897,5.591-12.488,12.488-12.488h37.487 c6.897,0,12.488,5.591,12.488,12.488V92.925z"/><path style="fill:#3A556A;" d="M450.417,394.185l-10.606,19.924c-1.175,2.207-4.337,2.207-5.512,0l-10.606-19.924 c4.183-1.498,8.679-2.248,13.362-2.248C441.738,391.937,446.233,392.686,450.417,394.185z"/><g> <polygon style="fill:#DC8744;" points="440.177,92.916 440.177,353.35 437.055,350.228 433.933,353.35 433.933,92.916 "/> <polygon style="fill:#DC8744;" points="419.447,92.916 419.447,353.412 416.263,350.228 413.203,353.288 413.203,92.916 "/> <polygon style="fill:#DC8744;" points="460.969,92.916 460.969,353.288 457.909,350.228 454.725,353.412 454.725,92.916 "/> </g></symbol><symbol id="drawing" viewBox="0 0 468.293 468.293"><title>drawing</title><path style="fill:#EBF0F3;" d="M317.578,468.293H71.805c-6.897,0-12.488-5.591-12.488-12.488V91.397 C95.01,55.704,115.021,35.693,150.714,0h245.774c6.897,0,12.488,5.591,12.488,12.488v364.408 C373.283,412.588,353.271,432.6,317.578,468.293z"/><g> <path style="fill:#D5D6DB;" d="M151.04,0v91.723H59.317v-1.374c4.995-11.988,15.985-27.098,29.221-41.709l19.419-19.418 C122.505,15.922,137.616,4.995,149.666,0H151.04z"/> <path style="fill:#D5D6DB;" d="M317.253,468.293V376.57h91.723v1.374c-4.995,11.988-15.985,27.098-29.221,41.709l-19.419,19.418 c-14.548,13.3-29.659,24.226-41.709,29.221H317.253z"/> </g><path style="fill:#FCD462;" d="M353.395,274.912v13.186l-15.181,30.317l-11.092,22.125c-2.569,5.124-9.882,5.124-12.451,0 l-11.092-22.124l-15.182-30.317v-13.186H353.395z"/><path style="fill:#E56353;" d="M353.395,76.806v211.292c0,0-7.242-9.286-10.817-9.286c-1.95,0-4.968,2.739-7.336,5.246 c-1.996,2.089-3.529,4.039-3.529,4.039s-1.485-1.903-3.436-3.946c-2.368-2.554-5.432-5.339-7.382-5.339 c-1.95,0-5.014,2.786-7.335,5.293c-1.997,2.089-3.482,3.993-3.482,3.993s-1.486-1.903-3.482-3.993 c-2.368-2.507-5.432-5.293-7.382-5.293c-3.529,0-10.817,9.286-10.817,9.286V76.806H353.395z"/><g> <path style="fill:#D15241;" d="M313.56,76.806v207.299c-1.997,2.089-3.482,3.993-3.482,3.993s-1.486-1.903-3.482-3.993V76.806 H313.56z"/> <path style="fill:#D15241;" d="M335.241,76.806v207.253c-1.996,2.089-3.529,4.039-3.529,4.039s-1.485-1.903-3.436-3.946V76.806 H335.241z"/> </g><path style="fill:#64798A;" d="M338.213,318.415l-11.092,22.125c-2.569,5.124-9.882,5.124-12.451,0l-11.092-22.124H338.213z"/><path style="fill:#2D93BA;" d="M353.395,76.806h-64.999V44.675c0-6.897,5.591-12.488,12.488-12.488h40.023 c6.897,0,12.488,5.591,12.488,12.488V76.806z"/><path style="fill:#27A2DB;" d="M114.898,282.49v150.494c0,1.724,1.398,3.122,3.122,3.122h150.494c2.781,0,4.174-3.363,2.208-5.329 L120.228,280.282C118.261,278.315,114.898,279.708,114.898,282.49z M145.205,340.578l65.219,65.222 c1.967,1.967,0.574,5.329-2.208,5.329h-65.219c-1.724,0-3.122-1.398-3.122-3.122v-65.222 C139.875,340.004,143.238,338.611,145.205,340.578z"/><rect x="182.253" y="32.187" style="fill:#44C4A1;" width="74.927" height="255.913"/><g> <rect x="182.253" y="58.568" style="fill:#3EA69B;" width="26.306" height="9.366"/> <rect x="182.253" y="82.788" style="fill:#3EA69B;" width="13.818" height="9.366"/> <rect x="182.253" y="107.014" style="fill:#3EA69B;" width="26.306" height="9.366"/> <rect x="182.253" y="131.234" style="fill:#3EA69B;" width="13.818" height="9.366"/> <rect x="182.253" y="155.461" style="fill:#3EA69B;" width="26.306" height="9.366"/> <rect x="182.253" y="179.699" style="fill:#3EA69B;" width="13.818" height="9.366"/> <rect x="182.253" y="203.926" style="fill:#3EA69B;" width="26.306" height="9.366"/> <rect x="182.253" y="228.152" style="fill:#3EA69B;" width="13.818" height="9.366"/> <rect x="182.253" y="252.347" style="fill:#3EA69B;" width="26.306" height="9.366"/> </g></symbol><symbol id="browser-1" viewBox="0 0 468.293 468.293"><title>browser-1</title><path style="fill:#3A556A;" d="M449.561,452.683H18.732C8.386,452.683,0,444.296,0,433.951V34.341 C0,23.996,8.386,15.61,18.732,15.61h430.829c10.345,0,18.732,8.386,18.732,18.732v399.61 C468.293,444.296,459.906,452.683,449.561,452.683z"/><rect x="31.22" y="110.754" style="fill:#E1E6E9;" width="405.854" height="309.198"/><path style="fill:#FCD462;" d="M56.195,78.792H37.463c-3.448,0-6.244-2.795-6.244-6.244V53.816c0-3.448,2.795-6.244,6.244-6.244 h18.732c3.448,0,6.244,2.795,6.244,6.244v18.732C62.439,75.997,59.644,78.792,56.195,78.792z"/><path style="fill:#E1E6E9;" d="M112.39,78.792H93.659c-3.448,0-6.244-2.795-6.244-6.244V53.816c0-3.448,2.795-6.244,6.244-6.244 h18.732c3.448,0,6.244,2.795,6.244,6.244v18.732C118.634,75.997,115.839,78.792,112.39,78.792z"/><path style="fill:#44C4A1;" d="M168.585,78.792h-18.732c-3.448,0-6.244-2.795-6.244-6.244V53.816c0-3.448,2.795-6.244,6.244-6.244 h18.732c3.448,0,6.244,2.795,6.244,6.244v18.732C174.829,75.997,172.034,78.792,168.585,78.792z"/><path style="fill:#EBF0F3;" d="M421.463,78.792H241.045c-8.621,0-15.61-6.989-15.61-15.61v0c0-8.621,6.989-15.61,15.61-15.61 h180.418c8.621,0,15.61,6.989,15.61,15.61v0C437.073,71.803,430.085,78.792,421.463,78.792z"/><polygon style="fill:#27A2DB;" points="234.146,142.792 126.795,205.866 234.146,268.94 341.497,205.866 "/><polygon style="fill:#44C4A1;" points="234.146,387.939 341.497,324.788 341.497,205.866 234.146,268.94 "/><polygon style="fill:#E56353;" points="234.147,387.939 126.795,324.788 126.795,205.866 234.147,268.94 "/></symbol><symbol id="connection" viewBox="0 0 468.293 468.293"><title>connection</title><path style="fill:#44C4A1;" d="M468.293,99.902H0V43.707c0-10.345,8.386-18.732,18.732-18.732h430.829 c10.345,0,18.732,8.386,18.732,18.732V99.902z"/><path style="fill:#E1E6E9;" d="M449.561,443.317H18.732C8.386,443.317,0,434.931,0,424.585V99.902h468.293v324.683 C468.293,434.931,459.906,443.317,449.561,443.317z"/><circle style="fill:#FCD462;" cx="57.987" cy="62.439" r="18.732"/><circle style="fill:#27A2DB;" cx="120.426" cy="62.439" r="18.732"/><rect x="179.262" y="51.031" style="fill:#EBF0F3;" width="249.756" height="24.976"/><g> <path style="fill:#64798A;" d="M357.293,191.235H111c-13.976,0-25.348,11.372-25.348,25.348v111.709h14.911V216.584 c0-5.755,4.683-10.438,10.438-10.438h246.293c5.755,0,10.438,4.683,10.438,10.438v111.709h14.911V216.584 C382.641,202.608,371.269,191.235,357.293,191.235z"/> <rect x="226.691" y="246.403" style="fill:#64798A;" width="14.91" height="62.339"/> </g><path style="fill:#E56353;" d="M311.403,246.405H156.89c-3.448,0-6.244-2.796-6.244-6.244V157.22c0-3.448,2.796-6.244,6.244-6.244 h154.513c3.448,0,6.244,2.795,6.244,6.244v82.941C317.647,243.609,314.851,246.405,311.403,246.405z"/><path style="fill:#27A2DB;" d="M143.059,392.244H43.156c-3.448,0-6.244-2.796-6.244-6.244v-71.013c0-3.448,2.795-6.244,6.244-6.244 h99.902c3.448,0,6.244,2.796,6.244,6.244V386C149.303,389.448,146.507,392.244,143.059,392.244z"/><path style="fill:#44C4A1;" d="M284.098,392.244h-99.902c-3.448,0-6.244-2.796-6.244-6.244v-71.013c0-3.448,2.795-6.244,6.244-6.244 h99.902c3.448,0,6.244,2.796,6.244,6.244V386C290.341,389.448,287.546,392.244,284.098,392.244z"/><path style="fill:#FCD462;" d="M425.136,392.244h-99.902c-3.448,0-6.244-2.796-6.244-6.244v-71.013c0-3.448,2.796-6.244,6.244-6.244 h99.902c3.448,0,6.244,2.796,6.244,6.244V386C431.38,389.448,428.585,392.244,425.136,392.244z"/></symbol><symbol id="group" viewBox="0 0 468.293 468.293"><title>group</title><g> <polygon style="fill:#64798A;" points="233.638,208.82 56.199,274.154 56.199,325.082 70.249,325.082 70.249,283.951 233.652,223.789 398.042,283.961 398.042,325.082 412.092,325.082 412.092,274.144 "/> <rect x="226.616" y="256.762" style="fill:#64798A;" width="14.049" height="68.321"/> </g><path style="fill:#D15241;" d="M63.225,397.638c-27.923,0-51.844,17.135-61.822,41.463c-4.947,12.06,3.789,25.33,16.825,25.33 h89.995c13.036,0,21.772-13.27,16.825-25.33C115.068,414.773,91.147,397.638,63.225,397.638z"/><path style="fill:#D5D6DB;" d="M244.445,256.761h-21.336c-6.729,0-12.744-4.194-15.069-10.508l-3.638-9.876h58.751l-3.638,9.876 C257.189,252.566,251.174,256.761,244.445,256.761z"/><path style="fill:#FCD462;" d="M224.376,4.408c-39.291,4.38-70.77,36.194-74.786,75.524c-2.749,26.921,7.076,51.616,24.312,68.927 c12.859,12.914,19.67,30.662,19.67,48.886l81.15,0.009c0-18.765,7.762-36.472,20.758-50.008 c14.667-15.276,23.681-36.019,23.681-58.869C319.161,38.706,275.702-1.314,224.376,4.408z"/><path style="fill:#44C4A1;" d="M194.899,197.794h77.756c5.358,0,9.702,4.344,9.702,9.702v2.427c0,5.358-4.344,9.702-9.702,9.702 h-77.756c-5.358,0-9.702-4.344-9.702-9.702v-2.427C185.198,202.137,189.541,197.794,194.899,197.794z"/><path style="fill:#3EA69B;" d="M194.899,219.665h77.756c5.358,0,9.702,4.344,9.702,9.702v2.427c0,5.358-4.344,9.702-9.702,9.702 h-77.756c-5.358,0-9.702-4.344-9.702-9.702v-2.427C185.198,224.008,189.541,219.665,194.899,219.665z"/><g> <path style="fill:#E56353;" d="M260.831,100.892c-10.464,0-18.976,8.513-18.976,18.976v77.882h7.591v-62.737 c3.176,2.394,7.111,3.831,11.386,3.831c10.464,0,18.976-8.513,18.976-18.976C279.808,109.404,271.295,100.892,260.831,100.892z M260.831,131.254c-6.279,0-11.386-5.107-11.386-11.386c0-6.279,5.107-11.386,11.386-11.386s11.386,5.107,11.386,11.386 C272.217,126.147,267.11,131.254,260.831,131.254z"/> <path style="fill:#E56353;" d="M188.485,119.868c0,10.464,8.513,18.976,18.976,18.976c4.275,0,8.21-1.438,11.386-3.831v62.737 h7.591v-77.882c0-10.464-8.513-18.976-18.976-18.976C196.998,100.892,188.485,109.404,188.485,119.868z M196.076,119.868 c0-6.279,5.107-11.386,11.386-11.386s11.386,5.107,11.386,11.386c0,6.279-5.107,11.386-11.386,11.386 S196.076,126.147,196.076,119.868z"/> </g><circle style="fill:#E1E6E9;" cx="63.226" cy="377.943" r="27.629"/><path style="fill:#27A2DB;" d="M234.146,397.638c-27.923,0-51.844,17.135-61.822,41.463c-4.947,12.06,3.789,25.33,16.825,25.33 h89.995c13.036,0,21.772-13.27,16.825-25.33C285.99,414.773,262.069,397.638,234.146,397.638z"/><circle style="fill:#E1E6E9;" cx="234.146" cy="377.943" r="27.629"/><path style="fill:#44C4A1;" d="M405.068,397.638c-27.923,0-51.844,17.135-61.822,41.463c-4.947,12.06,3.789,25.33,16.825,25.33 h89.995c13.036,0,21.772-13.27,16.825-25.33C456.912,414.773,432.991,397.638,405.068,397.638z"/><circle style="fill:#E1E6E9;" cx="405.042" cy="377.943" r="27.629"/></symbol><symbol id="browser" viewBox="0 0 468.293 468.293"><title>browser</title><path style="fill:#3A556A;" d="M384.96,69.299H0V17.627C0,10.73,5.591,5.139,12.488,5.139h359.984 c6.897,0,12.488,5.591,12.488,12.488V69.299z"/><path style="fill:#E1E6E9;" d="M372.472,377.267H12.488C5.591,377.267,0,371.676,0,364.779V69.299h384.96v295.48 C384.96,371.676,379.369,377.267,372.472,377.267z"/><circle style="fill:#FCD462;" cx="41.703" cy="37.22" r="16.041"/><circle style="fill:#27A2DB;" cx="93.034" cy="37.22" r="16.041"/><circle style="fill:#44C4A1;" cx="144.359" cy="37.22" r="16.041"/><path style="fill:#27A2DB;" d="M439.864,346.904l28.429-6.996l0-35.814l-28.43-6.996c-2.953-13.419-8.258-25.931-15.431-37.153 l15.181-25.091l-25.325-25.325l-25.093,15.182c-11.221-7.173-23.732-12.476-37.15-15.429l-6.997-28.432h-35.815l-6.997,28.432 c-13.42,2.953-25.931,8.258-37.154,15.431l-25.093-15.181l-25.325,25.326l15.182,25.092c-7.172,11.222-12.477,23.732-15.429,37.15 l-28.431,6.997v35.814l28.431,6.996c2.953,13.419,8.257,25.93,15.43,37.152l-15.18,25.091l25.325,25.325l25.09-15.18 c11.223,7.173,23.735,12.479,37.155,15.431l6.996,28.427h35.815l6.996-28.427c13.421-2.953,25.934-8.258,37.156-15.432 l25.089,15.178l25.324-25.325l-15.18-25.088C431.606,372.837,436.911,360.324,439.864,346.904z"/><circle style="fill:#E1E6E9;" cx="327.143" cy="321.998" r="89.825"/><circle style="fill:#1C75A1;" cx="327.143" cy="321.998" r="51.325"/><g> <path style="fill:#3A556A;" d="M69.263,172.518l-6.561,14.906H50.889l28.871-65.523h11.813l28.871,65.523h-11.809l-6.564-14.906 H69.263z M97.573,162.304l-11.905-26.998l-11.905,26.998H97.573z"/> <path style="fill:#3A556A;" d="M173.784,127.616c4.562,3.814,6.843,9.688,6.843,17.622c0,7.941-2.331,13.755-6.984,17.439 c-4.657,3.685-11.798,5.531-21.421,5.531h-11.622v19.217h-11.062v-65.523h22.497C161.971,121.902,169.222,123.809,173.784,127.616z M165.957,154.66c2.216-2.342,3.326-5.775,3.326-10.306c0-4.531-1.408-7.736-4.219-9.612c-2.811-1.877-7.217-2.807-13.217-2.807 h-11.249v26.243h12.843C159.564,158.176,163.737,157.009,165.957,154.66z"/> <path style="fill:#3A556A;" d="M193.656,121.902h11.062v65.523h-11.062V121.902z"/> </g><path style="fill:#E1E6E9;" d="M347.497,49.707H199.617c-6.897,0-12.488-5.591-12.488-12.488v0c0-6.897,5.591-12.488,12.488-12.488 h147.879c6.897,0,12.488,5.591,12.488,12.488v0C359.984,44.116,354.393,49.707,347.497,49.707z"/></symbol></svg>